/* XPM */
static char *close_pressed[] = {
/* columns rows colors chars-per-pixel */
"34 34 39 1 ",
"  c #302F2C",
". c #32312E",
"X c #33322F",
"o c #34322F",
"O c #34332F",
"+ c #343330",
"@ c #373532",
"# c #363632",
"$ c #373632",
"% c #363633",
"& c #3A3935",
"* c #3B3935",
"= c #3B3936",
"- c #3B3A36",
"; c #3B3A37",
": c #3C3A36",
"> c #3E3C38",
", c #3F3D39",
"< c #3F3E39",
"1 c #3F3D3A",
"2 c #3F3E3A",
"3 c #43423D",
"4 c #45433F",
"5 c #45443F",
"6 c #46443F",
"7 c #454440",
"8 c #484642",
"9 c #484742",
"0 c #4C4B45",
"q c #4D4B46",
"w c #4E4C47",
"e c #4F4D47",
"r c #504E48",
"t c #938F84",
"y c #939084",
"u c #979489",
"i c #CFCCBC",
"p c #D0CCBD",
"a c #FCF7E4",
/* pixels */
"           .;380ww083;.           ",
"         $6weeeeeeeeeew5$         ",
"       +6eeeeeeeeeeeeeeee7O       ",
"      -qeeeeeeeeeeeeeeeeeeq*      ",
"     ,eeeeeeeeeeeeeeeeeeeeee2     ",
"    1eeeeeeeeeeeeeeeeeeeeeeee<    ",
"   -eeeeeeeeeeeeeeeeeeeeeeeeee*   ",
"  +qeeeeeeeeeeeeeeeeeeeeeeeeeeqo  ",
"  6eeeeeeeeeeeeeeeeeeeeeeeeeeee5  ",
" %eeeeeeeeeeeeeeeeeeeeeeeeeeeeee$ ",
" 6eeeeeeeeeeeeeeeeeeeeeeeeeeeeee5 ",
".weeeeeeeeeeeeeeeeeeeeeeeeeeeeeew.",
":eeeeeeeeeeeereeeeeereeeeeeeeeeee;",
"3eeeeeeeeeeerpyeeeeypreeeeeeeeeee3",
"9eeeeeeeeeeeetaueetaueeeeeeeeeeee8",
"0eeeeeeeeeeeeetautaueeeeeeeeeeeee0",
"weeeeeeeeeeeeeeyaayeeeeeeeeeeeeeew",
"weeeeeeeeeeeeeeyaayeeeeeeeeeeeeeew",
"0eeeeeeeeeeeeetautaueeeeeeeeeeeee0",
"9eeeeeeeeeeeetaueetaueeeeeeeeeeee8",
"3eeeeeeeeeeeriyeeeeypreeeeeeeeeee3",
";eeeeeeeeeeeereeeeeereeeeeeeeeeee=",
".weeeeeeeeeeeeeeeeeeeeeeeeeeeeeew.",
" 7eeeeeeeeeeeeeeeeeeeeeeeeeeeeee4 ",
" #eeeeeeeeeeeeeeeeeeeeeeeeeeeeee$ ",
"  6eeeeeeeeeeeeeeeeeeeeeeeeeeee4  ",
"  OqeeeeeeeeeeeeeeeeeeeeeeeeeeqX  ",
"   *eeeeeeeeeeeeeeeeeeeeeeeeee&   ",
"    <eeeeeeeeeeeeeeeeeeeeeeee,    ",
"     >eeeeeeeeeeeeeeeeeeeeee2     ",
"      *qeeeeeeeeeeeeeeeeeeq&      ",
"       o5eeeeeeeeeeeeeeee4X       ",
"         @5weeeeeeeeeew4#         ",
"           .;380ww083;.           "
};
