/* XPM */
static char *close_inactive[] = {
/* columns rows colors chars-per-pixel */
"34 34 8 1 ",
"  c #3D3B37",
". c #3F3D38",
"X c #716E66",
"o c #716F67",
"O c #757269",
"+ c #A09D91",
"@ c #A09E90",
"# c #C3BFB0",
/* pixels */
"                                  ",
"                                  ",
"                                  ",
"                                  ",
"                                  ",
"                                  ",
"                                  ",
"                                  ",
"                                  ",
"                                  ",
"                                  ",
"                                  ",
"             .      .             ",
"            .@o    o@.            ",
"             X#O  X#O             ",
"              X#OX#O              ",
"               o##o               ",
"               o##o               ",
"              X#OX#O              ",
"             X#O  X#O             ",
"            .+o    o@.            ",
"             .      .             ",
"                                  ",
"                                  ",
"                                  ",
"                                  ",
"                                  ",
"                                  ",
"                                  ",
"                                  ",
"                                  ",
"                                  ",
"                                  ",
"                                  "
};
