/* XPM */
static char *maximize_prelight[] = {
/* columns rows colors chars-per-pixel */
"34 34 26 1 ",
"  c #302F2C",
". c #32312E",
"X c #343330",
"o c #353330",
"O c #353430",
"+ c #353431",
"@ c #373532",
"# c #363632",
"$ c #373632",
"% c #363633",
"& c #373633",
"* c #383633",
"= c #393734",
"- c #3A3835",
"; c #3A3935",
": c #3B3936",
"> c #3C3B37",
", c #3D3B37",
"< c #3E3C39",
"1 c #3E3D39",
"2 c #3F3D39",
"3 c #403E3B",
"4 c #43413D",
"5 c #43423E",
"6 c #44423F",
"7 c #FEF9E6",
/* pixels */
"           .*,345543,&.           ",
"         +16666666666661O         ",
"       .266666666666666661.       ",
"      @56666666666666666665%      ",
"     -6666666666666666666666:     ",
"    ;666666666666666666666666-    ",
"   @66666666666666666666666666%   ",
"  .5666666666666666666666666665.  ",
"  266666666666666666666666666661  ",
" o666666666666666666666666666666O ",
" 16666666666666666666666666666661 ",
".66666666666666666666666666666666.",
"*66666666666666666666666666666666$",
",66666666666677777777666666666666>",
"3666666666666766666676666666666663",
"4666666666666766666676666666666664",
"5666666666666766666676666666666665",
"5666666666666766666676666666666665",
"4666666666666766666676666666666664",
"3666666666666766666676666666666663",
",66666666666677777777666666666666>",
"*66666666666666666666666666666666$",
".66666666666666666666666666666666.",
" 1666666666666666666666666666666< ",
" X666666666666666666666666666666O ",
"  16666666666666666666666666666<  ",
"  .5666666666666666666666666665.  ",
"   %66666666666666666666666666#   ",
"    -666666666666666666666666-    ",
"     =6666666666666666666666:     ",
"      %56666666666666666665#      ",
"       .16666666666666666<.       ",
"         o1666666666666<X         ",
"           .$>345543>$.           "
};
