/* XPM */
static char *close_pressed[] = {
/* columns rows colors chars-per-pixel */
"34 26 22 1 ",
"  c #020200",
". c #2A2202",
"X c #5E4C05",
"o c #614F05",
"O c #624F05",
"+ c #9E8008",
"@ c #9F8108",
"# c #A18308",
"$ c #A68708",
"% c #AB8A08",
"& c #AB8B08",
"* c #AC8B08",
"= c #B39108",
"- c #B49208",
"; c #B79509",
": c #B99609",
"> c #C5A00A",
", c #C7A10A",
"< c #C8A20A",
"1 c #CBA60A",
"2 c #CEA70A",
"3 c #CFA80A",
/* pixels */
"333333333333,;&$##$&;,333333333333",
"3333333333>%@@@@@@@@@@&>3333333333",
"333333332=@@@@@@@@@@@@@@=233333333",
"33333331%@@@@@@@@@@@@@@@@&13333333",
"3333332&@@@@@@@@@@@@@@@@@@&2333333",
"333333=@@@@@@@@@@@@@@@@@@@@-333333",
"33333>@@@@@@@@@@@@@@@@@@@@@@>33333",
"33333&@@@@@@@@@@@@@@@@@@@@@@&33333",
"3333,@@@@@@@@+@@@@@@+@@@@@@@@,3333",
"3333;@@@@@@@+.o@@@@o.+@@@@@@@:3333",
"3333&@@@@@@@@O X@@O X@@@@@@@@&3333",
"3333$@@@@@@@@@O XO X@@@@@@@@@$3333",
"3333#@@@@@@@@@@o  o@@@@@@@@@@#3333",
"3333#@@@@@@@@@@o  o@@@@@@@@@@#3333",
"3333$@@@@@@@@@O XO X@@@@@@@@@$3333",
"3333&@@@@@@@@O X@@O X@@@@@@@@&3333",
"3333;@@@@@@@+.o@@@@o.+@@@@@@@:3333",
"3333<@@@@@@@@+@@@@@@+@@@@@@@@,3333",
"33333&@@@@@@@@@@@@@@@@@@@@@@&33333",
"33333>@@@@@@@@@@@@@@@@@@@@@@>33333",
"333333=@@@@@@@@@@@@@@@@@@@@-333333",
"3333333*@@@@@@@@@@@@@@@@@@&2333333",
"33333331&@@@@@@@@@@@@@@@@&13333333",
"333333332=@@@@@@@@@@@@@@-233333333",
"3333333333,*@@@@@@@@@@&>3333333333",
"333333333333,:&$##$&:<333333333333"
};
