/* XPM */
static char *hide_pressed[] = {
/* columns rows colors chars-per-pixel */
"34 34 22 1 ",
"  c black",
". c #B08F09",
"X c #B19009",
"o c #B29009",
"O c #B39109",
"+ c #B79409",
"@ c #B99609",
"# c #BA9709",
"$ c #BC9809",
"% c #BC9909",
"& c #C09B09",
"* c #C09C09",
"= c #C19D09",
"- c #C39E09",
"; c #C49F09",
": c #C5A00A",
"> c #C8A20A",
", c #C9A30A",
"< c #CBA50A",
"1 c #CCA50A",
"2 c #CDA60A",
"3 c #CFA80A",
/* pixels */
"333333333332;$+OXXO+$;233333333333",
"333333333>@X..........X#>333333333",
"3333333<@................#<3333333",
"333333;o..................o;333333",
"33333*......................&33333",
"3333&........................*3333",
"333;..........................;333",
"33<o..........................o<33",
"33@............................#33",
"3,..............................>3",
"3@..............................#3",
"2X..............................X2",
"-................................;",
"$................................$",
"+................................+",
"O................................O",
"X................................X",
"X................................X",
"O................................O",
"+............        ............+",
"$................................%",
";................................;",
"2X..............................X2",
"3#..............................#3",
"3,..............................>3",
"33@............................#33",
"33<o..........................o133",
"333;..........................:333",
"3333*........................*3333",
"33333=......................&33333",
"333333;o..................o:333333",
"3333333<#................#13333333",
"333333333>#X..........X#,333333333",
"333333333332;$+OXXO+$;233333333333"
};
