/* XPM */
static char *hide_pressed[] = {
/* columns rows colors chars-per-pixel */
"34 26 17 1 ",
"  c black",
". c #9F8108",
"X c #A18308",
"o c #A68708",
"O c #AB8A08",
"+ c #AB8B08",
"@ c #AC8B08",
"# c #B39108",
"$ c #B49208",
"% c #B79509",
"& c #B99609",
"* c #C5A00A",
"= c #C7A10A",
"- c #C8A20A",
"; c #CBA60A",
": c #CEA70A",
"> c #CFA80A",
/* pixels */
">>>>>>>>>>>>=%+oXXo+%=>>>>>>>>>>>>",
">>>>>>>>>>*O..........+*>>>>>>>>>>",
">>>>>>>>:#..............#:>>>>>>>>",
">>>>>>>;O................+;>>>>>>>",
">>>>>>:+..................+:>>>>>>",
">>>>>>#....................$>>>>>>",
">>>>>*......................*>>>>>",
">>>>>+......................+>>>>>",
">>>>=........................=>>>>",
">>>>%........................&>>>>",
">>>>+........................+>>>>",
">>>>o........................o>>>>",
">>>>X........................X>>>>",
">>>>X........................X>>>>",
">>>>o........................o>>>>",
">>>>+........        ........+>>>>",
">>>>%........................&>>>>",
">>>>-........................=>>>>",
">>>>>+......................+>>>>>",
">>>>>*......................*>>>>>",
">>>>>>#....................$>>>>>>",
">>>>>>>@..................+:>>>>>>",
">>>>>>>;+................+;>>>>>>>",
">>>>>>>>:#..............$:>>>>>>>>",
">>>>>>>>>>=@..........+*>>>>>>>>>>",
">>>>>>>>>>>>=&+oXXo+&->>>>>>>>>>>>"
};
