/* XPM */
static char *maximize_prelight[] = {
/* columns rows colors chars-per-pixel */
"34 26 13 1 ",
"  c black",
". c #A98908",
"X c #AA8A08",
"o c #AE8D08",
"O c #B28F08",
"+ c #B29108",
"@ c #B99609",
"# c #BC980A",
"$ c #BD9A0A",
"% c #C7A20A",
"& c #C9A20A",
"* c #CBA60A",
"= c #CFA80A",
/* pixels */
"============&#+oXXo+#&============",
"==========%O..........+%==========",
"=========@..............@=========",
"=======*O................+*=======",
"=======+..................+=======",
"======@....................@======",
"=====%......................%=====",
"=====+......................+=====",
"====&........................&====",
"====#........        ........$====",
"====+........ ...... ........+====",
"====o........ ...... ........o====",
"====X........ ...... ........X====",
"====X........ ...... ........X====",
"====o........ ...... ........o====",
"====+........ ...... ........+====",
"====#........        ........$====",
"====&........................&====",
"=====+......................+=====",
"=====%......................%=====",
"======@....................@======",
"=======+..................+=======",
"=======*+................+*=======",
"=========@..............@=========",
"==========&+..........+%==========",
"============&$+oXXo+$&============"
};
