/* XPM */
static char *top_right_inactive[] = {
/* columns rows colors chars-per-pixel */
"8 38 6 1 ",
"  c None",
". c #E6D081",
"X c #E5D281",
"o c #E4D182",
"O c #E5D182",
"+ c #E4D183",
/* pixels */
"OOo     ",
"OOOOX   ",
"OOOOOO  ",
"OOOOOOX ",
"OOOOOOO ",
"OOOOOOO.",
"OOOOOOO+",
"OOOOOOOO",
"OOOOOOOO",
"OOOOOOOO",
"OOOOOOOO",
"OOOOOOOO",
"OOOOOOOO",
"OOOOOOOO",
"OOOOOOOO",
"OOOOOOOO",
"OOOOOOOO",
"OOOOOOOO",
"OOOOOOOO",
"OOOOOOOO",
"OOOOOOOO",
"OOOOOOOO",
"OOOOOOOO",
"OOOOOOOO",
"OOOOOOOO",
"OOOOOOOO",
"OOOOOOOO",
"OOOOOOOO",
"OOOOOOOO",
"OOOOOOOO",
"OOOOOOOO",
"OOOOOOOO",
"OOOOOOOO",
"OOOOOOOO",
"OOOOOOOO",
"OOOOOOOO",
"OOOOOOOO",
"OOOOOOOO"
};
