/* XPM */
static char *top_right_active[] = {
/* columns rows colors chars-per-pixel */
"8 38 6 1 ",
"  c None",
". c #CFA809",
"X c #CFA80A",
"o c #CFA80B",
"O c #CFA90B",
"+ c #D0A80A",
/* pixels */
"XXo     ",
"XXXX+   ",
"XXXXXX  ",
"XXXXXX+ ",
"XXXXXXX ",
"XXXXXXXO",
"XXXXXXXX",
"XXXXXXX.",
"XXXXXXXX",
"XXXXXXXX",
"XXXXXXXX",
"XXXXXXXX",
"XXXXXXXX",
"XXXXXXXX",
"XXXXXXXX",
"XXXXXXXX",
"XXXXXXXX",
"XXXXXXXX",
"XXXXXXXX",
"XXXXXXXX",
"XXXXXXXX",
"XXXXXXXX",
"XXXXXXXX",
"XXXXXXXX",
"XXXXXXXX",
"XXXXXXXX",
"XXXXXXXX",
"XXXXXXXX",
"XXXXXXXX",
"XXXXXXXX",
"XXXXXXXX",
"XXXXXXXX",
"XXXXXXXX",
"XXXXXXXX",
"XXXXXXXX",
"XXXXXXXX",
"XXXXXXXX",
"XXXXXXXX"
};
