/* XPM */
static char *close_pressed[] = {
/* columns rows colors chars-per-pixel */
"34 34 32 1 ",
"  c #312902",
". c #585231",
"X c #595232",
"o c #8B866D",
"O c #8F8972",
"+ c #8F8A73",
"@ c #C9C6B9",
"# c #CBC8BA",
"$ c #CCC9BB",
"% c #CDCABC",
"& c #CCCABD",
"* c #CCCBBD",
"= c #D1CEC1",
"- c #D3D0C4",
"; c #D4D1C5",
": c #D4D3C6",
"> c #D5D3C7",
", c #D8D6CB",
"< c #D9D6CB",
"1 c #D9D7CC",
"2 c #DAD8CC",
"3 c #DBD9CE",
"4 c #DCD9CF",
"5 c #DCDAD0",
"6 c #DDDBD1",
"7 c #E0DDD3",
"8 c #E1DED4",
"9 c #E2E1D7",
"0 c #E3E1D8",
"q c #E4E1D8",
"w c #E4E2D8",
"e c #E6E4DB",
/* pixels */
"eeeeeeeeeeew4:=*$$*=:4weeeeeeeeeee",
"eeeeeeeee7-$##########$;7eeeeeeeee",
"eeeeeee9-################;9eeeeeee",
"eeeeee5%##################%5eeeeee",
"eeeee1######################<eeeee",
"eeee,########################1eeee",
"eee5##########################5eee",
"ee9%##########################%9ee",
"ee-############################;ee",
"e8##############################7e",
"e-##############################;e",
"w$##############################$q",
"3############@######@############4",
":###########@.O####O.@###########:",
"=############+ o##+ o############=",
"*#############+ o+ o#############&",
"$##############O  O##############$",
"$##############O  O##############$",
"*#############+ o+ o#############&",
"=############+ o##+ o############=",
":###########@XO####O.@###########>",
"4############@######@############4",
"w$##############################$q",
"e;##############################;e",
"e8##############################7e",
"ee-############################;ee",
"ee9%##########################%0ee",
"eee5##########################6eee",
"eeee1########################1eeee",
"eeeee2######################<eeeee",
"eeeeee5%##################%6eeeeee",
"eeeeeee9;################;0eeeeeee",
"eeeeeeeee7;$##########$;8eeeeeeeee",
"eeeeeeeeeeeq4:=*$$*=:4qeeeeeeeeeee"
};
