/* XPM */
static char *maximize_pressed[] = {
/* columns rows colors chars-per-pixel */
"34 34 26 1 ",
"  c #302700",
". c #CBC8BA",
"X c #CCC9BB",
"o c #CDCABC",
"O c #CCCABD",
"+ c #CCCBBD",
"@ c #D1CEC1",
"# c #D3D0C4",
"$ c #D4D1C5",
"% c #D4D3C6",
"& c #D5D3C7",
"* c #D8D6CB",
"= c #D9D6CB",
"- c #D9D7CC",
"; c #DAD8CC",
": c #DBD9CE",
"> c #DCD9CF",
", c #DCDAD0",
"< c #DDDBD1",
"1 c #E0DDD3",
"2 c #E1DED4",
"3 c #E2E1D7",
"4 c #E3E1D8",
"5 c #E4E1D8",
"6 c #E4E2D8",
"7 c #E6E4DB",
/* pixels */
"777777777776>%@+XX+@%>677777777777",
"7777777771#X..........X$1777777777",
"77777773#................$37777777",
"777777,o..................o,777777",
"77777-......................=77777",
"7777*........................-7777",
"777,..........................,777",
"773o..........................o377",
"77#............................$77",
"72..............................17",
"7#..............................$7",
"6X..............................X5",
":................................>",
"%............        ............%",
"@............ ...... ............@",
"+............ ...... ............O",
"X............ ...... ............X",
"X............ ...... ............X",
"+............ ...... ............O",
"@............ ...... ............@",
"%............        ............&",
">................................>",
"6X..............................X5",
"7$..............................$7",
"72..............................17",
"77#............................$77",
"773o..........................o477",
"777,..........................<777",
"7777-........................-7777",
"77777;......................=77777",
"777777,o..................o<777777",
"77777773$................$47777777",
"7777777771$X..........X$2777777777",
"777777777775>%@+XX+@%>577777777777"
};
