/* XPM */
static char *top_right_inactive[] = {
/* columns rows colors chars-per-pixel */
"8 42 4 1 ",
"  c None",
". c #F2F0E5",
"X c #F1F0E6",
"o c #F2F0E6",
/* pixels */
"oooo    ",
"oooooX  ",
"ooooooX ",
"ooooooo ",
"ooooooo.",
"oooooooo",
"oooooooo",
"oooooooo",
"oooooooo",
"oooooooo",
"oooooooo",
"oooooooo",
"oooooooo",
"oooooooo",
"oooooooo",
"oooooooo",
"oooooooo",
"oooooooo",
"oooooooo",
"oooooooo",
"oooooooo",
"oooooooo",
"oooooooo",
"oooooooo",
"oooooooo",
"oooooooo",
"oooooooo",
"oooooooo",
"oooooooo",
"oooooooo",
"oooooooo",
"oooooooo",
"oooooooo",
"oooooooo",
"oooooooo",
"oooooooo",
"oooooooo",
"oooooooo",
"oooooooo",
"oooooooo",
"oooooooo",
"oooooooo"
};
